<svg width="127" height="170" viewBox="0 0 127 170" fill="none" xmlns="http://www.w3.org/2000/svg">
<g clip-path="url(#clip0_101_6630)">
<path d="M79.6025 48.3963C78.7037 48.6429 77.8089 48.9072 76.9054 49.1359C72.0574 50.3666 67.2076 51.5931 62.3561 52.8154C56.9147 54.1958 51.4749 55.5824 46.0364 56.9752C45.3635 57.1481 44.7678 56.9043 44.1399 56.7792C43.7593 56.7034 43.2231 56.6017 43.4003 57.2911C43.8493 59.0348 44.1485 60.8214 44.9463 62.5088C44.9463 61.9624 44.9287 61.4152 44.9549 60.8701C44.9654 60.6495 44.9028 60.3314 45.2448 60.2769C45.3547 60.2691 45.464 60.2986 45.5551 60.3605C45.6461 60.4225 45.7137 60.5133 45.7468 60.6183C46.2897 61.8321 46.7362 63.0708 46.5584 64.4392C46.5381 64.5964 46.5079 64.7535 46.3323 64.7998C46.2416 64.8241 46.1455 64.8176 46.0589 64.7814C45.9723 64.7451 45.9003 64.6811 45.854 64.5995C45.605 64.1588 45.3001 63.752 44.9469 63.3894C45.2005 64.4574 45.451 65.526 45.7098 66.594C45.7795 66.8815 46.0488 66.9275 46.2768 67.007C46.9282 67.2353 47.5824 67.4544 48.3339 67.7107C47.8785 65.8662 47.4403 64.0843 46.9988 62.3038C46.6731 60.9936 46.3674 59.6773 45.9998 58.3788C45.8426 57.8241 46.0922 57.6645 46.5369 57.5517C48.8279 56.9727 51.1143 56.3747 53.4083 55.8061C57.1026 54.8903 60.7975 53.977 64.4991 53.0921C67.0598 52.4801 69.6306 51.9144 72.1718 51.2226C74.6748 50.5413 77.2068 49.9669 79.7187 49.3177C80.4727 49.1226 80.8896 49.2163 81.0992 50.0967C81.9077 53.4982 82.7797 56.8846 83.6595 60.2686C83.7972 60.7986 83.6521 60.9671 83.1569 61.0898C80.8363 61.6651 78.5247 62.2764 76.2087 62.8696C74.3451 63.3466 72.4803 63.8191 70.6145 64.287C70.1433 64.4041 69.9637 64.6133 70.0835 65.1353C70.4388 66.6843 70.7226 68.25 71.0767 69.7993C71.2175 70.4156 71.5823 70.757 72.3215 70.7496C75.704 70.7166 79.0873 70.7311 82.4701 70.7567C83.0968 70.7613 83.3806 70.5573 83.3609 69.9133C83.339 69.2068 83.3772 68.4983 83.3661 67.7915C83.3575 67.2464 83.5874 67.0116 84.1423 67.0344C84.6286 67.0544 85.0051 67.1496 85.0051 67.7369C85.0039 70.8438 85.0014 73.9506 84.9977 77.0575C84.9977 77.6491 84.6541 77.8445 84.0918 77.8223C83.5156 77.7998 83.3609 77.4833 83.3707 76.9792C83.3818 76.3938 83.3415 75.8083 83.3855 75.2265C83.4472 74.41 83.1797 74.079 82.2944 74.091C78.789 74.1388 75.2827 74.1151 71.7768 74.1172C70.1516 74.1172 70.0241 74.0642 69.7332 72.4416C69.3326 70.2011 68.6079 68.0423 68.1444 65.8197C67.9996 65.1248 67.6009 65.0746 66.9803 65.2342C61.3663 66.6893 55.7409 68.0999 50.1301 69.5657C48.3863 70.0212 46.8847 69.2502 45.3129 68.8015C44.9687 68.7033 44.974 68.3085 44.9019 68.0223C43.9864 64.3619 43.0839 60.6978 42.1699 57.0375C42.0328 56.489 42.1539 56.1851 42.7554 56.0348C46.6287 55.0681 50.4943 54.0701 54.3636 53.0871C61.3891 51.3024 68.4245 49.5475 75.4402 47.7163C76.9245 47.3286 78.2082 47.8334 79.5597 48.152L79.6025 48.3963ZM51.0767 67.6014C51.6258 67.5447 52.0414 67.2729 52.0568 66.7139C52.0651 66.5983 52.0489 66.4822 52.0093 66.3732C51.9696 66.2643 51.9073 66.165 51.8266 66.0817C51.7459 65.9985 51.6485 65.9333 51.5408 65.8903C51.4332 65.8473 51.3176 65.8276 51.2018 65.8323C51.0873 65.8179 50.971 65.8285 50.861 65.8636C50.751 65.8986 50.65 65.9572 50.5649 66.0352C50.4799 66.1133 50.4129 66.2089 50.3685 66.3154C50.3242 66.422 50.3036 66.537 50.3082 66.6523C50.291 66.7659 50.2977 66.8818 50.3278 66.9927C50.358 67.1036 50.4109 67.2069 50.4832 67.2962C50.5555 67.3855 50.6456 67.4588 50.7478 67.5113C50.85 67.5638 50.962 67.5945 51.0767 67.6014Z" fill="#F39642"/>
<path d="M8.41711 131.319C9.49159 131.91 10.5879 132.464 11.6359 133.099C15.1231 135.21 18.5909 137.351 22.0701 139.477C27.1254 142.565 32.1828 145.649 37.2422 148.73C41.0418 151.041 44.8547 153.331 48.6507 155.648C52.8169 158.191 56.9768 160.746 61.1303 163.311C61.7053 163.664 62.2824 164.015 62.8469 164.385C63.3606 164.721 63.7864 164.611 64.2828 164.285C68.056 161.81 71.8467 159.361 75.6319 156.904C80.1362 153.98 84.64 151.055 89.1431 148.129C93.0232 145.599 96.8968 143.057 100.764 140.506C104.905 137.789 109.03 135.049 113.195 132.371C114.53 131.513 115.797 130.537 117.243 129.858C117.424 129.773 117.653 129.541 117.805 129.798C117.958 130.055 117.654 130.12 117.488 130.246C114.621 132.44 111.629 134.468 108.745 136.625C106.227 138.508 103.689 140.384 101.212 142.331C98.9228 144.132 96.5245 145.794 94.1808 147.525C91.0955 149.805 88.0206 152.1 84.9339 154.378C81.7737 156.71 78.5974 159.021 75.4433 161.359C72.8827 163.257 70.3482 165.19 67.791 167.091C66.5618 168.005 65.2951 168.868 64.0708 169.789C63.6373 170.116 63.3313 170.032 62.9286 169.749C59.6401 167.442 56.3445 165.145 53.0417 162.859C48.9582 160.019 44.8747 157.18 40.791 154.341C36.307 151.218 31.8243 148.094 27.3429 144.968C24.9244 143.289 22.4744 141.652 20.0626 139.964C16.5717 137.523 13.1017 135.051 9.62101 132.595C9.15603 132.267 8.56101 132.1 8.41711 131.319Z" fill="#F39642"/>
<path d="M119.966 31.8485C118.252 31.3534 116.667 30.5759 115.074 29.8093C110.986 27.8421 106.877 25.9193 102.784 23.9593C98.6568 21.9816 94.5459 19.9686 90.4178 17.9922C85.5184 15.6466 80.6058 13.3282 75.7033 10.9891C72.1557 9.29622 68.5952 7.62796 65.0827 5.86387C64.613 5.59451 64.0814 5.45148 63.5399 5.44872C62.9984 5.44597 62.4655 5.58359 61.993 5.84816C57.9447 7.84428 53.8557 9.75751 49.7889 11.7166C46.3861 13.3556 43.0006 15.0313 39.5939 16.6623C34.8057 18.9545 30.0018 21.2138 25.2106 23.4992C19.9186 26.0237 14.6305 28.556 9.34611 31.0961C9.21777 31.1729 9.07417 31.2207 8.92539 31.2362C8.7766 31.2516 8.62624 31.2343 8.48486 31.1854C8.90085 30.5143 9.59694 30.253 10.2003 29.9177C12.1724 28.8208 14.1993 27.8199 16.1609 26.7045C23.4638 22.5523 30.7358 18.3499 38.0415 14.2036C44.3179 10.6409 50.6258 7.13371 56.9143 3.59228C58.8395 2.50805 60.7534 1.40389 62.6558 0.279799C62.9021 0.102981 63.1964 0.00545212 63.4995 0.000221947C63.8027 -0.00500822 64.1002 0.0823082 64.3524 0.250525C70.5057 3.77069 76.6685 7.27371 82.8407 10.7596C88.055 13.7026 93.2952 16.5991 98.5089 19.5415C102.44 21.7601 106.343 24.0323 110.269 26.2614C112.936 27.7756 115.626 29.2503 118.296 30.7577C118.874 31.0853 119.411 31.4837 119.966 31.8485Z" fill="#F39642"/>
<path d="M99.5214 99.03C99.5214 96.1422 99.5214 93.2542 99.5214 90.3661C99.5214 89.0282 99.6447 88.9025 100.98 88.9022C104.025 88.9022 107.07 88.9194 110.114 88.8831C110.915 88.8735 111.249 89.1481 111.195 89.9495C111.155 90.5021 111.156 91.057 111.199 91.6095C111.262 92.3632 110.917 92.5647 110.221 92.5524C108.407 92.5197 106.591 92.5576 104.777 92.5302C103.963 92.5182 103.606 92.8186 103.627 93.6703C103.704 96.7695 103.169 96.2703 106.24 96.3203C107.009 96.3329 107.778 96.3264 108.546 96.3203C108.989 96.3166 109.183 96.4993 109.255 96.9643C109.387 97.8009 109.208 98.6214 109.228 99.4497C109.241 99.9541 108.841 99.927 108.506 99.9289C107.184 99.9369 105.86 99.9566 104.539 99.9252C103.855 99.9088 103.591 100.182 103.626 100.852C103.665 101.467 103.664 102.083 103.624 102.697C103.564 103.481 103.936 103.731 104.657 103.725C106.503 103.708 108.348 103.717 110.193 103.725C111.286 103.728 111.405 103.842 111.395 104.955C111.368 107.793 111.756 107.447 108.894 107.454C106.311 107.46 103.727 107.461 101.144 107.456C99.5803 107.456 99.5516 107.456 99.5331 105.862C99.5063 103.585 99.526 101.308 99.526 99.0319L99.5214 99.03Z" fill="#5794BE"/>
<path d="M65.8448 98.1283C65.8448 95.421 65.8685 92.7134 65.8316 90.0068C65.8199 89.1625 66.116 88.875 66.9587 88.8845C70.1258 88.9203 73.2941 88.9132 76.4614 88.8888C77.1652 88.8836 77.4943 89.1138 77.4573 89.8441C77.4265 90.4579 77.4326 91.0748 77.4539 91.6892C77.4764 92.3317 77.1766 92.552 76.5572 92.5452C74.6508 92.5248 72.7437 92.5618 70.8373 92.5301C70.0817 92.5175 69.793 92.7926 69.8133 93.5546C69.8978 96.7673 69.3163 96.2746 72.5021 96.3242C73.2109 96.3353 73.9174 96.3393 74.624 96.3137C75.2825 96.2897 75.5995 96.5667 75.5851 97.2354C75.5715 97.8501 75.5589 98.4679 75.5894 99.0808C75.6202 99.7248 75.3345 99.9568 74.7115 99.9464C73.3896 99.9239 72.0661 99.9621 70.7445 99.9313C70.07 99.9152 69.8004 100.174 69.8142 100.849C69.8833 104.208 69.3265 103.674 72.5946 103.719C73.9477 103.738 75.3009 103.737 76.654 103.717C77.3418 103.707 77.6357 103.948 77.64 104.688C77.6585 107.454 77.6804 107.454 74.8825 107.454C72.2378 107.454 69.5927 107.434 66.9483 107.466C66.1197 107.476 65.8131 107.202 65.8272 106.343C65.8729 103.605 65.8445 100.868 65.8448 98.1283Z" fill="#5794BE"/>
<path d="M120.867 88.5729C122.574 88.6681 124.441 89.7019 125.874 91.5452C126.324 92.1236 126.36 92.6721 125.581 93.0372C125.416 93.1149 125.263 93.2196 125.098 93.2991C124.577 93.5515 124.147 94.1351 123.571 94.0793C123.027 94.0269 122.801 93.3318 122.354 93.0119C121.42 92.3454 120.421 91.9187 119.258 92.327C118.667 92.5346 118.136 92.8351 118.022 93.5549C117.96 93.8898 118.001 94.2358 118.141 94.5465C118.281 94.8573 118.512 95.1177 118.804 95.2928C119.571 95.8311 120.474 96.0529 121.331 96.3808C122.84 96.9028 124.235 97.7088 125.441 98.7553C127.715 100.834 127.249 104.363 125.155 106.078C121.628 108.966 116.272 108.115 114.072 104.691C113.213 103.354 113.263 103.11 114.645 102.394C114.754 102.337 114.861 102.273 114.97 102.221C116.198 101.645 116.11 101.251 117.166 102.687C118.118 103.981 119.517 104.294 121.041 104.027C121.428 103.986 121.793 103.826 122.085 103.568C122.376 103.309 122.58 102.966 122.666 102.587C122.878 101.687 122.451 101.032 121.753 100.535C120.761 99.8258 119.567 99.5919 118.458 99.1559C116.501 98.3856 114.831 97.3687 114.114 95.1442C113.467 93.1377 114.479 90.7656 116.359 89.6141C117.536 88.8949 118.831 88.5421 120.867 88.5729Z" fill="#5794BE"/>
<path d="M86.4944 102.792C87.2502 100.441 85.7487 98.2988 84.2323 96.1335C82.8423 94.1485 81.5263 92.1114 80.1905 90.0888C80.0145 89.8223 79.6811 89.5477 79.8679 89.1921C80.0638 88.819 80.4746 89.0233 80.7923 88.9918C80.9445 88.977 81.1004 88.9887 81.2529 88.9887C83.9599 88.9863 83.9479 88.9937 85.3888 91.3263C86.1788 92.6057 87.0077 93.8616 87.8378 95.1164C88.3694 95.9175 88.4748 95.9123 89.0236 95.0812C90.2395 93.2395 91.4545 91.3971 92.6485 89.5409C92.749 89.3531 92.903 89.1995 93.091 89.0994C93.2791 88.9994 93.4926 88.9575 93.7045 88.9792C94.4708 89.0122 95.2405 88.9727 96.0081 88.99C96.3261 88.9971 96.7393 88.8384 96.9202 89.2251C97.0675 89.5397 96.7859 89.8016 96.6235 90.05C95.2979 92.0781 93.9673 94.103 92.6319 96.1246C92.3835 96.5827 92.0962 97.0186 91.7731 97.4274C90.4681 98.8072 90.1661 100.455 90.2869 102.273C90.3846 103.743 90.2037 105.222 90.3824 106.693C90.4394 107.163 90.2388 107.377 89.7662 107.373C88.9061 107.364 88.0455 107.368 87.1855 107.373C86.6795 107.376 86.4799 107.134 86.4885 106.631C86.5064 105.524 86.4944 104.417 86.4944 102.792Z" fill="#5794BE"/>
<path d="M37.1383 99.6888C37.1371 101.965 37.1357 104.242 37.1343 106.518C37.1455 106.762 37.1214 107.006 37.0628 107.243C37.0347 107.349 36.9706 107.442 36.8814 107.506C36.7923 107.57 36.6836 107.602 36.5741 107.594C36.318 107.581 36.2123 107.409 36.155 107.178C36.0105 106.596 36.1578 106.016 36.1569 105.435C36.1507 100.882 36.1507 96.3292 36.1569 91.7761C36.1569 91.0104 35.939 90.2487 36.1291 89.4793C36.1945 89.2146 36.1683 88.8861 36.5276 88.834C36.6822 88.8117 36.84 88.8388 36.9783 88.9115C37.1166 88.9841 37.2285 89.0986 37.2979 89.2386C37.5823 89.7486 37.8301 90.2789 38.0929 90.8006C40.4113 95.4008 42.727 100.002 45.0399 104.605C45.1825 104.89 45.2719 105.21 45.6349 105.217C46.0296 105.224 46.2148 104.894 46.3649 104.593C47.3494 102.616 48.3141 100.629 49.3008 98.6528C50.8082 95.6331 52.3233 92.6176 53.8461 89.6065C54.0378 89.2272 54.2375 88.7557 54.7607 88.838C55.319 88.9255 55.2334 89.4826 55.3351 89.8792C55.5166 90.5879 55.2349 91.2766 55.2389 91.9844C55.2651 96.7529 55.2528 101.521 55.2528 106.29C55.2528 106.505 55.2608 106.721 55.2476 106.937C55.2266 107.279 55.0701 107.556 54.7092 107.574C54.3342 107.593 54.1802 107.302 54.1423 106.973C54.1195 106.697 54.1126 106.42 54.1216 106.143C54.1253 101.99 54.1295 97.8371 54.1342 93.6838C54.1342 93.4065 54.1265 93.1291 54.1124 92.8537C54.1031 92.6734 54.1158 92.4568 53.8905 92.3998C53.6653 92.3428 53.5667 92.5421 53.4853 92.6968C53.0003 93.6188 52.5156 94.541 52.05 95.4728C50.158 99.2592 48.2708 103.048 46.3883 106.839C46.2342 107.147 46.0755 107.506 45.7215 107.534C45.3098 107.566 45.1015 107.214 44.9302 106.867C42.9234 102.799 40.9131 98.7325 38.8993 94.6668C38.5727 94.007 38.2596 93.3378 37.8877 92.7039C37.7515 92.4722 37.6926 92.0011 37.3071 92.1163C37.0116 92.2044 37.1481 92.6022 37.1469 92.8605C37.1352 95.1364 37.1392 97.4123 37.1383 99.6888Z" fill="#5794BE"/>
<path d="M34.0132 106.93C34.0233 107.226 34.0131 107.417 33.836 107.53C33.7426 107.586 33.6323 107.606 33.5249 107.588C33.4175 107.57 33.3202 107.514 33.2505 107.43C32.9911 107.168 32.7945 106.85 32.6755 106.5C32.1865 105.375 31.6516 104.269 31.1965 103.131C30.9749 102.576 30.6418 102.42 30.0773 102.425C27.7422 102.446 25.4066 102.429 23.0709 102.425C22.886 102.425 22.7011 102.441 22.5162 102.427C19.8354 102.223 20.4024 102.332 19.3057 104.589C18.9181 105.387 18.6331 106.234 18.2491 107.034C18.0991 107.347 17.8424 107.758 17.403 107.541C16.9494 107.318 17.1679 106.894 17.3142 106.569C19.3685 102.017 21.4264 97.4665 23.4881 92.9186C23.9534 91.8863 24.3466 90.8214 24.8226 89.7947C24.9767 89.4619 25.0836 88.9448 25.581 88.9781C25.9815 89.0049 26.1412 89.4153 26.2918 89.7531C28.328 94.3135 30.3637 98.8739 32.3988 103.434C32.8373 104.414 33.3155 105.376 33.771 106.348C33.8751 106.568 33.9589 106.797 34.0132 106.93ZM25.483 101.361V101.323C26.8619 101.323 28.2411 101.326 29.6203 101.321C30.2573 101.318 30.3361 100.969 30.1066 100.471C29.722 99.6369 29.3091 98.8157 28.9357 97.9766C27.9909 95.8505 27.0677 93.7157 26.1184 91.592C26.0022 91.332 25.9082 90.9533 25.5403 90.961C25.263 90.9668 25.2072 91.295 25.1107 91.5088C23.7633 94.4978 22.4423 97.4975 21.0692 100.474C20.749 101.168 20.986 101.354 21.6174 101.358C22.9051 101.366 24.1934 101.361 25.483 101.361Z" fill="#5794BE"/>
<path d="M0.00739577 97.5187C-0.159615 94.3412 2.5181 90.5347 6.40095 89.1466C9.45305 88.0555 12.25 88.6739 14.9185 90.2818C15.2131 90.4593 15.7452 90.7132 15.4097 91.1997C15.1188 91.6222 14.7342 91.3895 14.3672 91.1498C9.61575 88.0468 4.49173 89.9135 1.91354 94.3455C0.0338948 97.5766 1.21221 102.425 4.14106 104.757C5.08172 105.525 6.17223 106.089 7.34302 106.413C8.51382 106.737 9.73921 106.813 10.9411 106.636C12.1889 106.436 13.3723 105.946 14.3956 105.204C14.7164 104.99 15.0646 104.64 15.4106 105.151C15.7566 105.661 15.2725 105.876 14.9792 106.09C11.6562 108.524 6.88442 108.336 3.67639 105.723C1.25967 103.754 0.016948 101.263 0.00739577 97.5187Z" fill="#5794BE"/>
<path d="M108.036 114.543C108.036 116.876 108.039 119.21 108.03 121.543C108.03 121.811 108.215 122.254 107.719 122.239C107.327 122.228 107.439 121.823 107.434 121.572C107.418 120.753 107.428 119.934 107.338 119.043C105.94 121.805 103.888 123.22 100.838 122.101C98.8395 121.368 97.7259 119.246 97.9515 117.212C98.0848 116.217 98.5212 115.287 99.2015 114.549C99.8817 113.811 100.773 113.3 101.754 113.086C103.969 112.646 105.579 113.602 107.293 116.537C107.519 115.693 107.389 114.92 107.429 114.16C107.446 113.85 107.255 113.421 107.704 113.286C108.082 113.172 108.204 113.552 108.382 113.788C110.056 115.982 111.73 118.175 113.405 120.368C113.602 120.625 113.727 120.962 114.226 121.088C114.226 120.478 114.226 119.91 114.226 119.342C114.226 117.62 114.217 115.899 114.241 114.177C114.245 113.846 114.038 113.242 114.49 113.246C114.972 113.25 114.829 113.869 114.831 114.24C114.842 116.453 114.836 118.667 114.828 120.88C114.827 121.125 114.803 121.369 114.756 121.61C114.711 121.836 114.812 122.166 114.509 122.246C114.199 122.328 114.037 122.067 113.864 121.836C112.324 119.772 110.776 117.712 109.22 115.658C108.912 115.249 108.573 114.862 108.251 114.465L108.036 114.543ZM106.717 117.807C106.832 115.375 104.747 113.631 102.695 113.547C100.697 113.464 98.516 115.329 98.4667 117.667C98.4199 119.872 100.399 121.936 102.553 121.964C103.656 121.962 104.713 121.523 105.493 120.744C106.273 119.966 106.713 118.909 106.717 117.807Z" fill="#5794BE"/>
<path d="M75.3761 117.311C75.3761 118.325 75.3721 119.339 75.3761 120.354C75.3822 121.597 75.4608 121.679 76.6632 121.692C77.493 121.701 78.3228 121.696 79.1523 121.697C79.4423 121.697 79.7661 121.725 79.7667 122.088C79.7667 122.522 79.3794 122.394 79.1338 122.396C77.782 122.405 76.4296 122.38 75.0778 122.399C74.3909 122.409 74.0166 122.167 73.873 121.447C73.6909 120.533 73.3119 119.856 72.1209 119.888C71.0233 119.917 69.9165 119.833 68.8118 119.89C68.2263 119.921 67.8476 120.143 67.6963 120.762C67.5671 121.171 67.3945 121.564 67.1815 121.936C67.0755 122.152 66.9433 122.443 66.6462 122.308C66.2931 122.146 66.4727 121.9 66.5975 121.63C67.6698 119.297 68.7209 116.954 69.7732 114.612C69.9233 114.279 70.0296 113.925 70.1883 113.595C70.2893 113.386 70.3821 113.123 70.7143 113.178C70.9682 113.22 71.0292 113.409 71.1216 113.616C72.0534 115.71 72.9958 117.798 73.9488 119.882C74.0646 120.136 74.0677 120.602 74.4803 120.51C74.8658 120.424 74.7299 119.998 74.7318 119.713C74.7447 117.777 74.7351 115.84 74.7456 113.904C74.7456 113.647 74.6365 113.23 74.9829 113.203C75.4041 113.17 75.3653 113.603 75.3681 113.899C75.3779 115.037 75.3721 116.174 75.3721 117.312L75.3761 117.311ZM70.5691 114.266C69.8878 115.76 69.2632 117.115 68.6525 118.476C68.4621 118.901 68.5508 119.207 69.0894 119.209C70.1926 119.212 71.2958 119.21 72.3991 119.203C72.7455 119.201 72.9692 119.015 72.7865 118.682C72.0251 117.294 71.6396 115.718 70.5691 114.266Z" fill="#5794BE"/>
<path d="M52.8536 117.923C53.1679 119.136 53.4801 120.045 54.2288 120.749C56.461 122.848 59.5553 121.948 60.5109 119.687C60.8966 118.774 60.7318 118.522 59.7553 118.504C59.2623 118.494 58.772 118.495 58.2806 118.483C58.0445 118.477 57.8205 118.382 57.8492 118.119C57.8735 117.901 58.1169 117.898 58.2997 117.896C59.0678 117.89 59.8403 117.836 60.603 117.904C61.3706 117.972 61.5533 117.649 61.5246 116.956C61.4827 115.944 61.553 114.926 61.5015 113.914C61.4726 113.35 61.7095 113.107 62.2056 113.065C64.0449 112.911 65.8876 113.012 67.729 113.011C67.9592 113.011 68.1795 113.11 68.144 113.386C68.1132 113.623 67.8812 113.595 67.7003 113.606C67.6695 113.608 67.6387 113.606 67.6079 113.608C65.5572 113.758 65.5575 113.758 65.5575 115.852C65.5575 117.758 65.5603 119.664 65.5514 121.57C65.5514 121.857 65.6663 122.318 65.2546 122.319C64.8541 122.319 64.9711 121.862 64.9702 121.584C64.9616 119.216 64.9394 116.849 64.9789 114.483C64.9906 113.795 64.7989 113.584 64.1034 113.591C62.2324 113.61 62.2333 113.579 62.2343 115.429C62.2355 117.366 62.2355 119.302 62.2343 121.239C62.2405 121.454 62.2346 121.669 62.2167 121.883C62.2159 121.977 62.1782 122.067 62.1116 122.133C62.0451 122.2 61.9551 122.238 61.8611 122.238C61.5924 122.241 61.6094 122.019 61.6084 121.841C61.6244 120.815 61.5847 119.79 61.4895 118.769C61.2992 119.32 61.0701 119.856 60.8039 120.375C59.8117 122.03 58.279 122.686 56.4166 122.434C54.5542 122.182 53.3044 121.078 52.645 119.318C52.5227 118.994 52.5375 118.986 52.8536 117.923Z" fill="#5794BE"/>
<path d="M51.5364 115.764C51.5364 114.962 51.5302 114.383 51.5391 113.804C51.5428 113.555 51.5653 113.263 51.9132 113.299C52.1936 113.327 52.1779 113.595 52.1779 113.809C52.1797 116.479 52.1783 119.151 52.1736 121.824C52.1736 122.014 52.2478 122.314 51.9197 122.311C51.6045 122.309 51.5444 122.057 51.5456 121.785C51.5475 121.386 51.5424 120.987 51.5305 120.588C51.5243 120.401 51.4901 120.201 51.2935 120.125C51.0594 120.035 50.9789 120.253 50.8846 120.395C49.4238 122.595 47.1818 122.471 44.9561 122.39C44.5795 122.376 44.5352 122.098 44.5358 121.802C44.5405 119.099 44.5449 116.396 44.549 113.693C44.5351 113.6 44.5423 113.506 44.5702 113.417C44.5981 113.328 44.6458 113.247 44.7099 113.179C44.7739 113.112 44.8525 113.059 44.9398 113.027C45.027 112.994 45.1206 112.981 45.2134 112.99C46.8101 112.969 48.4029 112.952 49.7978 113.94C50.4258 114.385 50.7839 115.076 51.5364 115.764ZM45.1311 117.62H45.1249C45.1249 118.725 45.1249 119.831 45.1249 120.937C45.1249 121.317 45.1351 121.659 45.6025 121.811C47.0776 122.291 49.5051 121.441 50.3568 120.123C51.3647 118.562 51.153 116.194 49.9562 114.903C48.7237 113.574 47.154 113.539 45.5354 113.619C45.0796 113.641 45.1348 114.004 45.1326 114.303C45.1277 115.409 45.1311 116.514 45.1311 117.62Z" fill="#5794BE"/>
<path d="M35.2179 117.846C35.2179 116.557 35.2179 115.267 35.2179 113.978C35.2179 113.641 35.1727 113.19 35.6185 113.17C37.1038 113.1 38.6466 112.789 40.0175 113.618C41.879 114.744 41.8423 117.162 40.2002 118.369C39.4699 118.906 39.4422 119.243 39.9768 119.87C40.5084 120.421 40.9766 121.03 41.3727 121.686C41.4839 121.897 41.7425 122.096 41.4306 122.302C41.2038 122.452 41.0245 122.24 40.8926 122.078C40.1999 121.22 39.5091 120.361 38.8349 119.49C38.4605 119.005 36.5285 118.679 36.0721 119.049C35.9865 119.137 35.923 119.244 35.8871 119.361C35.8511 119.479 35.8437 119.603 35.8654 119.724C35.8607 120.308 35.878 120.892 35.8499 121.474C35.8352 121.78 36.0243 122.286 35.5544 122.311C35.022 122.339 35.2497 121.81 35.2435 121.531C35.2155 120.304 35.2315 119.075 35.2315 117.847L35.2179 117.846ZM35.8635 115.916C35.8635 118.32 35.8635 118.32 38.2134 118.286C39.8101 118.262 40.7891 117.369 40.8017 115.923C40.814 114.593 39.7772 113.653 38.2442 113.608C35.8626 113.537 35.8626 113.537 35.8635 115.915V115.916Z" fill="#5794BE"/>
<path d="M91.1256 117.809C91.1256 119.1 91.1309 120.39 91.1207 121.68C91.1189 121.904 91.2341 122.285 90.9186 122.296C90.5457 122.309 90.6332 121.911 90.6104 121.651C90.4499 119.874 90.5081 118.093 90.5094 116.313C90.5094 116.036 90.5072 115.759 90.4893 115.484C90.4798 115.337 90.4724 115.165 90.2884 115.111C90.0456 115.039 89.9655 115.23 89.8922 115.392C89.1727 116.983 88.4091 118.557 87.7679 120.179C87.5318 120.776 87.1445 121.29 86.9642 121.907C86.9063 122.105 86.7769 122.326 86.5298 122.327C86.2617 122.33 86.2111 122.065 86.1261 121.88C85.5755 120.683 85.0254 119.486 84.4945 118.281C83.8542 116.827 83.229 115.366 82.6069 113.905C82.5144 113.689 82.324 113.369 82.5933 113.243C82.9156 113.092 82.935 113.476 83.029 113.683C84.0487 115.945 85.0683 118.207 86.0876 120.468C86.1874 120.691 86.2352 120.982 86.5282 120.988C86.8323 120.995 86.865 120.697 86.9658 120.475C87.9666 118.273 88.9838 116.079 89.9744 113.873C90.1451 113.492 90.2749 113.052 90.7654 113.133C91.3638 113.232 91.0979 113.778 91.1075 114.123C91.1426 115.351 91.1213 116.58 91.1213 117.809H91.1256Z" fill="#5794BE"/>
<path d="M97.1719 119.336C97.3697 117.34 97.1411 115.328 97.5475 113.344C97.8005 116.305 97.7518 119.265 97.7016 122.434C97.1078 121.921 97.3675 121.406 97.1777 120.942C96.6271 121.608 96.0915 122.236 95.2241 122.466C94.4206 122.706 93.5554 122.626 92.8092 122.243C92.013 121.83 91.3095 121.31 91.3385 120.179C91.8121 120.29 91.8744 120.66 92.0528 120.909C92.4322 121.455 92.9961 121.847 93.6409 122.011C94.2858 122.175 94.9682 122.101 95.5628 121.802C96.1843 121.479 96.6573 121.025 96.689 120.244C96.7235 119.401 96.2841 118.843 95.6225 118.437C94.8645 117.972 93.9715 117.809 93.1932 117.358C91.9723 116.654 91.4473 115.777 91.6833 114.596C91.8398 113.817 92.8773 113.036 93.9105 112.918C94.8824 112.808 96.3642 113.574 96.7269 114.369C96.8083 114.547 96.8831 114.746 96.6798 114.855C96.445 114.98 96.3806 114.727 96.2813 114.591C96.0214 114.207 95.6576 113.905 95.2324 113.721C94.8073 113.536 94.3384 113.477 93.8806 113.549C92.9467 113.648 92.1942 114.221 92.0833 114.993C91.985 115.677 92.6028 116.621 93.3611 116.939C94.0942 117.247 94.8328 117.541 95.5625 117.857C96.2661 118.13 96.8408 118.658 97.1719 119.336Z" fill="#5794BE"/>
<path d="M28.2723 117.721C28.2827 120.317 26.2 122.472 23.6782 122.477C23.0569 122.479 22.4413 122.359 21.8665 122.123C21.2917 121.887 20.7691 121.54 20.3286 121.102C19.8881 120.664 19.5383 120.143 19.2994 119.57C19.0604 118.996 18.9369 118.381 18.936 117.76C18.9203 115.21 21.0883 112.888 23.644 112.955C24.8877 112.98 26.0714 113.494 26.938 114.386C27.8046 115.279 28.2841 116.477 28.2723 117.721ZM19.4928 117.757C19.4893 118.31 19.5955 118.858 19.8052 119.369C20.015 119.881 20.3241 120.345 20.7148 120.737C21.1054 121.128 21.5697 121.438 22.0809 121.648C22.5921 121.858 23.1399 121.965 23.6927 121.963C25.9421 121.956 27.8637 119.94 27.8122 117.645C27.7743 116.546 27.3108 115.505 26.5197 114.742C25.7286 113.979 24.6718 113.553 23.5725 113.555C23.0268 113.556 22.4868 113.667 21.9844 113.88C21.482 114.093 21.0273 114.405 20.6472 114.796C20.267 115.188 19.969 115.652 19.7708 116.16C19.5725 116.668 19.478 117.211 19.4928 117.757Z" fill="#5794BE"/>
<path d="M16.0645 120.105C16.4875 118.372 15.6093 117.091 14.6097 115.838C14.113 115.215 13.6705 114.548 13.208 113.897C13.0558 113.682 12.7498 113.429 13.0697 113.196C13.335 113.003 13.5855 113.256 13.7528 113.488C14.4874 114.506 15.2337 115.517 15.9375 116.556C16.2358 116.996 16.4333 117.119 16.7975 116.62C17.5386 115.605 18.3225 114.622 19.0827 113.621C19.2488 113.402 19.4389 113.039 19.6989 113.215C20.0209 113.432 19.6583 113.708 19.5196 113.907C18.8195 114.914 18.1364 115.937 17.3645 116.888C16.966 117.356 16.7618 117.959 16.7935 118.573C16.8179 119.556 16.8086 120.541 16.7954 121.524C16.791 121.838 16.9245 122.307 16.4398 122.338C15.8827 122.373 16.0947 121.867 16.0737 121.579C16.0386 121.09 16.0645 120.596 16.0645 120.105Z" fill="#5794BE"/>
<path d="M34.7659 113.252C34.817 113.424 34.8532 113.599 34.8741 113.776C34.8796 115.621 34.9074 117.467 34.8667 119.311C34.8459 120.003 34.6138 120.673 34.2015 121.23C33.7892 121.787 33.2164 122.204 32.56 122.426C31.9555 122.609 31.3099 122.605 30.7075 122.416C30.105 122.226 29.5736 121.86 29.1825 121.364C28.7769 120.896 28.5559 120.295 28.561 119.676C28.5493 117.708 28.5442 115.74 28.5459 113.773C28.5459 113.538 28.4938 113.177 28.8142 113.187C29.1347 113.198 29.049 113.557 29.0497 113.79C29.0543 115.605 29.1159 117.422 29.0352 119.232C28.9523 121.092 30.5451 122.49 32.6524 121.924C33.5531 121.682 34.4119 120.322 34.4273 119.059C34.4464 117.46 34.4236 115.861 34.4402 114.262C34.4433 113.956 34.2932 113.589 34.7659 113.252Z" fill="#5794BE"/>
<path d="M52.7874 117.382C52.3024 116.054 52.9415 115.117 53.812 114.258C55.4143 112.679 58.0027 112.468 59.7027 113.763C59.8746 113.894 60.1199 113.977 59.9664 114.251C59.813 114.524 59.5942 114.36 59.4065 114.279C56.1014 112.86 53.9418 113.874 52.9276 117.321C52.9224 117.339 52.8765 117.344 52.7874 117.382Z" fill="#5794BE"/>
</g>
<defs>
<clipPath id="clip0_101_6630">
<rect width="126.949" height="170" fill="white"/>
</clipPath>
</defs>
</svg>
